<svg width="1045" height="900" viewBox="0 0 1045 900" fill="none" xmlns="http://www.w3.org/2000/svg">
<path d="M130.744 -32.3503C422.372 -199.941 794.642 -99.3886 962.232 192.239C1129.82 483.867 1029.27 856.137 737.643 1023.73C446.015 1191.32 73.7454 1090.77 -93.845 799.138C-261.435 507.51 -458.5 -32.3501 130.744 -32.3503Z" fill="#313133"/>
<path d="M130.744 -32.3503C422.372 -199.941 794.642 -99.3886 962.232 192.239C1129.82 483.867 1029.27 856.137 737.643 1023.73C446.015 1191.32 73.7454 1090.77 -93.845 799.138C-261.435 507.51 -458.5 -32.3501 130.744 -32.3503Z" fill="#28282B"/>
<path d="M737.643 1023.73C1029.27 856.137 1129.82 483.867 962.233 192.239C848.438 -5.77824 640.275 -115.7 427.066 -113.4C701.314 -83.6772 965.008 141.639 1010.11 421.259C1049.32 664.309 976.94 869.652 737.643 1023.73Z" fill="url(#paint0_linear)"/>
<defs>
<linearGradient id="paint0_linear" x1="733.354" y1="1105.36" x2="735.803" y2="-112.829" gradientUnits="userSpaceOnUse">
<stop stop-color="#4AFF87" stop-opacity="0"/>
<stop offset="1" stop-color="#4AFF87"/>
</linearGradient>
</defs>
</svg>
