<svg width="200" height="58" viewBox="0 0 200 58" fill="none" xmlns="http://www.w3.org/2000/svg">
<path d="M4.284 45.06C5.236 45.06 6.09 45.2793 6.846 45.718C7.61133 46.1473 8.20867 46.7447 8.638 47.51C9.06733 48.2753 9.282 49.1387 9.282 50.1C9.282 51.0613 9.06733 51.9247 8.638 52.69C8.20867 53.4553 7.61133 54.0573 6.846 54.496C6.09 54.9253 5.236 55.14 4.284 55.14C3.45333 55.14 2.69733 55 2.016 54.72C1.344 54.44 0.784 54.034 0.336 53.502L1.484 52.382C2.20267 53.1567 3.10333 53.544 4.186 53.544C5.026 53.544 5.73533 53.2873 6.314 52.774C6.902 52.2607 7.26133 51.584 7.392 50.744H3.01V49.302H7.364C7.20533 48.5087 6.83667 47.8693 6.258 47.384C5.68867 46.8987 4.998 46.656 4.186 46.656C3.10333 46.656 2.20267 47.0433 1.484 47.818L0.336 46.698C0.784 46.166 1.344 45.76 2.016 45.48C2.69733 45.2 3.45333 45.06 4.284 45.06ZM16.9007 49.008H14.2827V55H12.5327V49.008H9.90073V47.524H16.9007V49.008ZM20.9561 47.44C22.0575 47.44 22.8975 47.706 23.4761 48.238C24.0641 48.7607 24.3581 49.554 24.3581 50.618V55H22.7061V54.09C22.4915 54.4167 22.1835 54.6687 21.7821 54.846C21.3901 55.014 20.9141 55.098 20.3541 55.098C19.7941 55.098 19.3041 55.0047 18.8841 54.818C18.4641 54.622 18.1375 54.356 17.9041 54.02C17.6801 53.6747 17.5681 53.2873 17.5681 52.858C17.5681 52.186 17.8155 51.6493 18.3101 51.248C18.8141 50.8373 19.6028 50.632 20.6761 50.632H22.6081V50.52C22.6081 49.9973 22.4495 49.596 22.1321 49.316C21.8241 49.036 21.3621 48.896 20.7461 48.896C20.3261 48.896 19.9108 48.9613 19.5001 49.092C19.0988 49.2227 18.7581 49.4047 18.4781 49.638L17.7921 48.364C18.1841 48.0653 18.6555 47.8367 19.2061 47.678C19.7568 47.5193 20.3401 47.44 20.9561 47.44ZM20.7181 53.824C21.1568 53.824 21.5441 53.726 21.8801 53.53C22.2255 53.3247 22.4681 53.0353 22.6081 52.662V51.794H20.8021C19.7941 51.794 19.2901 52.1253 19.2901 52.788C19.2901 53.1053 19.4161 53.3573 19.6681 53.544C19.9201 53.7307 20.2701 53.824 20.7181 53.824ZM33.6917 47.524V55H31.9557V49.008H28.2737V55H26.5237V47.524H33.6917ZM39.693 49.988C40.645 49.988 41.373 50.2027 41.877 50.632C42.381 51.0613 42.633 51.668 42.633 52.452C42.633 53.2733 42.353 53.908 41.793 54.356C41.2423 54.804 40.4583 55.0233 39.441 55.014L36.053 55V47.524H37.803V49.974L39.693 49.988ZM43.599 47.524H45.349V55H43.599V47.524ZM39.287 53.726C39.8003 53.7353 40.1923 53.628 40.463 53.404C40.7336 53.18 40.869 52.8533 40.869 52.424C40.869 52.004 40.7383 51.696 40.477 51.5C40.2156 51.304 39.819 51.2013 39.287 51.192L37.803 51.178V53.712L39.287 53.726ZM55.7145 47.44C56.4425 47.44 57.0912 47.5987 57.6605 47.916C58.2392 48.2333 58.6919 48.6813 59.0185 49.26C59.3452 49.8387 59.5085 50.506 59.5085 51.262C59.5085 52.018 59.3452 52.69 59.0185 53.278C58.6919 53.8567 58.2392 54.3047 57.6605 54.622C57.0912 54.9393 56.4425 55.098 55.7145 55.098C54.7065 55.098 53.9085 54.762 53.3205 54.09V57.716H51.5705V47.524H53.2365V48.504C53.5259 48.1493 53.8805 47.8833 54.3005 47.706C54.7299 47.5287 55.2012 47.44 55.7145 47.44ZM55.5185 53.6C56.1625 53.6 56.6899 53.3853 57.1005 52.956C57.5205 52.5267 57.7305 51.962 57.7305 51.262C57.7305 50.562 57.5205 49.9973 57.1005 49.568C56.6899 49.1387 56.1625 48.924 55.5185 48.924C55.0985 48.924 54.7205 49.022 54.3845 49.218C54.0485 49.4047 53.7825 49.6753 53.5865 50.03C53.3905 50.3847 53.2925 50.7953 53.2925 51.262C53.2925 51.7287 53.3905 52.1393 53.5865 52.494C53.7825 52.8487 54.0485 53.124 54.3845 53.32C54.7205 53.5067 55.0985 53.6 55.5185 53.6ZM63.9405 47.44C65.0418 47.44 65.8818 47.706 66.4605 48.238C67.0485 48.7607 67.3425 49.554 67.3425 50.618V55H65.6905V54.09C65.4758 54.4167 65.1678 54.6687 64.7665 54.846C64.3745 55.014 63.8985 55.098 63.3385 55.098C62.7785 55.098 62.2885 55.0047 61.8685 54.818C61.4485 54.622 61.1218 54.356 60.8885 54.02C60.6645 53.6747 60.5525 53.2873 60.5525 52.858C60.5525 52.186 60.7998 51.6493 61.2945 51.248C61.7985 50.8373 62.5872 50.632 63.6605 50.632H65.5925V50.52C65.5925 49.9973 65.4338 49.596 65.1165 49.316C64.8085 49.036 64.3465 48.896 63.7305 48.896C63.3105 48.896 62.8952 48.9613 62.4845 49.092C62.0832 49.2227 61.7425 49.4047 61.4625 49.638L60.7765 48.364C61.1685 48.0653 61.6398 47.8367 62.1905 47.678C62.7412 47.5193 63.3245 47.44 63.9405 47.44ZM63.7025 53.824C64.1412 53.824 64.5285 53.726 64.8645 53.53C65.2098 53.3247 65.4525 53.0353 65.5925 52.662V51.794H63.7865C62.7785 51.794 62.2745 52.1253 62.2745 52.788C62.2745 53.1053 62.4005 53.3573 62.6525 53.544C62.9045 53.7307 63.2545 53.824 63.7025 53.824ZM73.8783 51.108C74.345 51.2387 74.7043 51.4533 74.9563 51.752C75.2177 52.0413 75.3483 52.3913 75.3483 52.802C75.3483 53.2593 75.1943 53.6653 74.8863 54.02C74.5783 54.3653 74.1537 54.636 73.6123 54.832C73.071 55.028 72.455 55.126 71.7643 55.126C71.1857 55.126 70.621 55.0607 70.0703 54.93C69.5197 54.79 69.0203 54.594 68.5723 54.342L69.0763 53.04C69.4403 53.2453 69.851 53.404 70.3083 53.516C70.7657 53.628 71.223 53.684 71.6803 53.684C72.2683 53.684 72.7257 53.5953 73.0523 53.418C73.3883 53.2313 73.5563 52.9793 73.5563 52.662C73.5563 52.3727 73.4257 52.1487 73.1643 51.99C72.9123 51.8313 72.553 51.752 72.0863 51.752H70.6303V50.576H71.9463C72.385 50.576 72.7257 50.5013 72.9683 50.352C73.2203 50.2027 73.3463 49.9927 73.3463 49.722C73.3463 49.4513 73.197 49.2367 72.8983 49.078C72.5997 48.9193 72.189 48.84 71.6663 48.84C70.9197 48.84 70.131 49.022 69.3003 49.386L68.8523 48.098C69.8323 47.6407 70.8217 47.412 71.8203 47.412C72.455 47.412 73.0243 47.5007 73.5283 47.678C74.0323 47.846 74.4243 48.0887 74.7043 48.406C74.9937 48.714 75.1383 49.0687 75.1383 49.47C75.1383 49.834 75.0263 50.1607 74.8023 50.45C74.5783 50.73 74.2703 50.9493 73.8783 51.108ZM82.5823 51.108C83.5063 51.388 83.9683 51.9853 83.9683 52.9C83.9683 53.572 83.7163 54.09 83.2123 54.454C82.7083 54.818 81.9616 55 80.9723 55H77.1643V47.524H80.8183C81.7329 47.524 82.4469 47.692 82.9603 48.028C83.4736 48.364 83.7303 48.84 83.7303 49.456C83.7303 49.8387 83.6276 50.17 83.4223 50.45C83.2263 50.73 82.9463 50.9493 82.5823 51.108ZM78.8303 50.646H80.6643C81.5696 50.646 82.0223 50.3333 82.0223 49.708C82.0223 49.1013 81.5696 48.798 80.6643 48.798H78.8303V50.646ZM80.8323 53.726C81.7936 53.726 82.2743 53.4133 82.2743 52.788C82.2743 52.4613 82.1623 52.2187 81.9383 52.06C81.7143 51.892 81.3643 51.808 80.8883 51.808H78.8303V53.726H80.8323ZM85.8323 47.524H87.5823V52.452L91.7123 47.524H93.3083V55H91.5583V50.072L87.4423 55H85.8323V47.524ZM101.584 49.008H98.9663V55H97.2163V49.008H94.5843V47.524H101.584V49.008ZM102.854 47.524H104.604V52.452L108.734 47.524H110.33V55H108.58V50.072L104.464 55H102.854V47.524ZM118.998 47.524V55H117.43V52.746H115.456L113.93 55H112.054L113.818 52.508C113.276 52.3213 112.861 52.0367 112.572 51.654C112.292 51.262 112.152 50.7813 112.152 50.212C112.152 49.3533 112.455 48.6907 113.062 48.224C113.668 47.7573 114.504 47.524 115.568 47.524H118.998ZM115.624 48.994C114.494 48.994 113.93 49.4187 113.93 50.268C113.93 51.108 114.476 51.528 115.568 51.528H117.43V48.994H115.624ZM128.329 52.004H126.971V55H125.221V47.524H126.971V50.548H128.371L130.583 47.524H132.459L129.743 51.122L132.641 55H130.583L128.329 52.004ZM136.961 55.098C136.205 55.098 135.524 54.9347 134.917 54.608C134.31 54.2813 133.834 53.8287 133.489 53.25C133.153 52.662 132.985 51.9993 132.985 51.262C132.985 50.5247 133.153 49.8667 133.489 49.288C133.834 48.7093 134.31 48.2567 134.917 47.93C135.524 47.6033 136.205 47.44 136.961 47.44C137.726 47.44 138.412 47.6033 139.019 47.93C139.626 48.2567 140.097 48.7093 140.433 49.288C140.778 49.8667 140.951 50.5247 140.951 51.262C140.951 51.9993 140.778 52.662 140.433 53.25C140.097 53.8287 139.626 54.2813 139.019 54.608C138.412 54.9347 137.726 55.098 136.961 55.098ZM136.961 53.6C137.605 53.6 138.137 53.3853 138.557 52.956C138.977 52.5267 139.187 51.962 139.187 51.262C139.187 50.562 138.977 49.9973 138.557 49.568C138.137 49.1387 137.605 48.924 136.961 48.924C136.317 48.924 135.785 49.1387 135.365 49.568C134.954 49.9973 134.749 50.562 134.749 51.262C134.749 51.962 134.954 52.5267 135.365 52.956C135.785 53.3853 136.317 53.6 136.961 53.6ZM150.03 55V50.044L147.51 54.216H146.754L144.276 50.03V55H142.68V47.524H144.514L147.174 52.2L149.96 47.524H151.598L151.612 55H150.03ZM161.127 47.524V55H159.391V49.008H155.709V55H153.959V47.524H161.127ZM166.275 47.44C167.376 47.44 168.216 47.706 168.795 48.238C169.383 48.7607 169.677 49.554 169.677 50.618V55H168.025V54.09C167.81 54.4167 167.502 54.6687 167.101 54.846C166.709 55.014 166.233 55.098 165.673 55.098C165.113 55.098 164.623 55.0047 164.203 54.818C163.783 54.622 163.456 54.356 163.223 54.02C162.999 53.6747 162.887 53.2873 162.887 52.858C162.887 52.186 163.134 51.6493 163.629 51.248C164.133 50.8373 164.921 50.632 165.995 50.632H167.927V50.52C167.927 49.9973 167.768 49.596 167.451 49.316C167.143 49.036 166.681 48.896 166.065 48.896C165.645 48.896 165.229 48.9613 164.819 49.092C164.417 49.2227 164.077 49.4047 163.797 49.638L163.111 48.364C163.503 48.0653 163.974 47.8367 164.525 47.678C165.075 47.5193 165.659 47.44 166.275 47.44ZM166.037 53.824C166.475 53.824 166.863 53.726 167.199 53.53C167.544 53.3247 167.787 53.0353 167.927 52.662V51.794H166.121C165.113 51.794 164.609 52.1253 164.609 52.788C164.609 53.1053 164.735 53.3573 164.987 53.544C165.239 53.7307 165.589 53.824 166.037 53.824ZM171.842 47.524H173.592V50.562H177.358V47.524H179.108V55H177.358V52.046H173.592V55H171.842V47.524ZM181.453 47.524H183.203V52.452L187.333 47.524H188.929V55H187.179V50.072L183.063 55H181.453V47.524ZM191.283 47.524H193.033V52.452L197.163 47.524H198.759V55H197.009V50.072L192.893 55H191.283V47.524Z" fill="white"/>
<path d="M105.459 10.1844V12.6714C103.687 11.1318 101.363 10.1844 98.8038 10.1844C93.1728 10.1844 88.6443 14.7635 88.6443 20.369C88.6443 25.9744 93.1728 30.5535 98.8038 30.5535C101.363 30.5535 103.687 29.6061 105.459 28.0665V30.5535H109.2V10.1844H105.459ZM98.8826 27.0007C95.2598 27.0007 92.4639 24.1585 92.4639 20.369C92.4639 16.5794 95.2598 13.7372 98.8826 13.7372C102.545 13.7372 105.301 16.5794 105.301 20.369C105.301 24.1585 102.545 27.0007 98.8826 27.0007Z" fill="white"/>
<path d="M33.055 9.93018C30.726 9.93018 28.5196 11.0263 27.0078 12.772V10.1847H23.1262L23.1262 30.5538H27.0078L27.0078 19.0241C27.0078 15.8574 29.2551 13.5028 32.2378 13.5028C33.2184 13.5028 34.3216 13.9899 35.3022 14.7207L36.4872 10.7827C35.4657 10.2144 34.2808 9.93018 33.055 9.93018Z" fill="white"/>
<path d="M48.812 9.61644C46.1564 9.61644 43.746 10.5903 41.9076 12.1727V0L38.0264 0L38.0264 30.5535H41.9076V27.9972C43.746 29.5797 46.1564 30.5535 48.812 30.5535C54.6542 30.5535 59.3525 25.8467 59.3525 20.085C59.3525 14.3232 54.6542 9.61644 48.812 9.61644ZM48.6894 26.9017C44.9308 26.9017 42.0301 23.9802 42.0301 20.085C42.0301 16.1897 44.9308 13.2683 48.6894 13.2683C52.4889 13.2683 55.3487 16.1897 55.3487 20.085C55.3487 23.9802 52.4889 26.9017 48.6894 26.9017Z" fill="white"/>
<path d="M63.7219 4.56401C64.9638 4.56401 66.0344 3.54979 66.0344 2.28201C66.0344 1.01422 64.9638 0 63.7219 0C62.4372 0 61.4094 1.01422 61.4094 2.28201C61.4094 3.54979 62.4372 4.56401 63.7219 4.56401ZM61.6664 30.5535H65.7346V10.1845H61.6664L61.6664 30.5535Z" fill="white"/>
<path d="M78.1243 9.93018C75.7705 9.93018 73.5407 11.0263 72.0128 12.772V10.1847H68.0898V30.5538H72.0128V19.0241C72.0128 15.8574 74.284 13.5028 77.2984 13.5028C80.3129 13.5028 82.5841 15.8574 82.5841 18.9835V30.5538H86.5896V18.8617C86.5896 13.8682 83.0383 9.93018 78.1243 9.93018Z" fill="white"/>
<path d="M16.8144 10.1844V12.6714C15.0424 11.1318 12.7191 10.1844 10.1595 10.1844C4.52847 10.1844 0 14.7635 0 20.369C0 25.9744 4.52847 30.5535 10.1595 30.5535C12.7191 30.5535 15.0424 29.6061 16.8144 28.0665V30.5535H20.5553L20.5553 10.1844H16.8144ZM10.2383 27.0007C6.6155 27.0007 3.81966 24.1585 3.81966 20.369C3.81966 16.5794 6.6155 13.7372 10.2383 13.7372C13.9004 13.7372 16.6569 16.5794 16.6569 20.369C16.6569 24.1585 13.9004 27.0007 10.2383 27.0007Z" fill="white"/>
</svg>
